<svg xmlns="http://www.w3.org/2000/svg" width="61" height="61" fill="none"><path fill="#fff" d="M7.625 17.792h45.75c1.525 0 2.542-1.017 2.542-2.542s-1.017-2.542-2.542-2.542H7.625c-1.525 0-2.542 1.017-2.542 2.542s1.017 2.542 2.542 2.542Zm45.75 5.083H7.625c-1.525 0-2.542 1.017-2.542 2.542s1.017 2.541 2.542 2.541h45.75c1.525 0 2.542-1.016 2.542-2.541s-1.017-2.542-2.542-2.542Zm0 10.167H7.625c-1.525 0-2.542 1.016-2.542 2.541s1.017 2.542 2.542 2.542h45.75c1.525 0 2.542-1.017 2.542-2.542s-1.017-2.541-2.542-2.541Zm0 10.166H7.625c-1.525 0-2.542 1.017-2.542 2.542s1.017 2.542 2.542 2.542h45.75c1.525 0 2.542-1.017 2.542-2.542s-1.017-2.542-2.542-2.542Z"/></svg>